<?xml version="1.0" encoding="UTF-8"?>
<svg version="1.1" viewBox="0 0 34.7 34.7" xmlns="http://www.w3.org/2000/svg">
 <rect width="34.7" height="34.7" fill="#1f1f28" stroke-width=".616"/>
 <path d="m6.68 24.1c-1.11 0-2.04-0.298-2.77-0.893-0.798-0.646-1.2-1.51-1.2-2.58 0-0.798 0.215-1.53 0.646-2.2 0.43-0.671 1.01-1.15 1.75-1.44-0.0886-0.317-0.133-0.677-0.133-1.08 0-1.06 0.31-2.04 0.931-2.92 0.646-0.937 1.46-1.56 2.45-1.88 1.01-0.354 2.03-0.532 3.04-0.532 0.62 0 1.28 0.0823 1.98 0.247 0.696 0.165 1.43 0.43 2.2 0.798 0.658 0.304 1.31 0.62 1.96 0.95 0.646 0.317 1.3 0.639 1.96 0.969 0.671-0.418 1.3-0.627 1.88-0.627 1.05 0 1.58 0.342 1.58 1.03 0 0.456-0.253 0.684-0.76 0.684-0.329 0-0.95-0.19-1.86-0.57-0.646 0.81-1.18 1.94-1.61 3.4-0.0506 0.165-0.114 0.361-0.19 0.589-0.0633 0.228-0.146 0.5-0.247 0.817-0.329 0.924-0.69 1.7-1.08 2.32-0.38 0.62-0.772 1.09-1.18 1.41 1.41-0.785 3.1-2.35 5.09-4.71 3.76-4.47 6.79-6.7 9.08-6.7 1.2 0 1.8 0.348 1.8 1.04 0 0.19-0.0696 0.424-0.209 0.703-0.177 0.291-0.342 0.437-0.494 0.437-0.0633 0-0.095-0.019-0.095-0.057l0.057-0.076c0.0506-0.0506 0.114-0.12 0.19-0.209 0.165-0.19 0.247-0.399 0.247-0.627 0-0.456-0.317-0.684-0.95-0.684-0.747 0-1.58 0.222-2.51 0.665-2.04 0.988-4.42 2.99-7.14 6.02-1.41 1.53-2.37 2.54-2.91 3.02-1.35 1.2-2.54 1.8-3.57 1.8-0.165 0-0.336-0.019-0.513-0.057l-0.019-0.019c0-0.0253 0.209-0.133 0.627-0.323l0.266-0.152c0.101-0.0633 0.196-0.127 0.285-0.19 0.228-0.177 0.601-0.779 1.12-1.8 0.177-0.354 0.348-0.703 0.513-1.04l0.494-1.03c0.215-0.405 0.424-0.81 0.627-1.22 0.215-0.405 0.43-0.804 0.646-1.2 0.266-0.481 0.519-0.905 0.76-1.27 0.253-0.38 0.481-0.696 0.684-0.95l-0.513-0.228c-1.44 0.874-2.94 2.38-4.48 4.52-2.82 3.91-5.63 5.87-8.41 5.87zm0.019-0.209c1.22 0 2.4-0.392 3.55-1.18 0.405-0.279 0.836-0.633 1.29-1.06 0.468-0.43 0.968-0.943 1.5-1.54 0.228-0.253 0.506-0.57 0.836-0.95l1.2-1.33 0.988-1.14c0.342-0.38 0.684-0.753 1.03-1.12 0.405-0.443 0.798-0.823 1.18-1.14 0.38-0.329 0.741-0.608 1.08-0.836-0.937-0.418-1.73-0.76-2.37-1.03-0.646-0.279-1.15-0.481-1.5-0.608-0.747-0.253-1.46-0.443-2.15-0.57-0.671-0.139-1.32-0.209-1.94-0.209-1.03 0-1.97 0.177-2.83 0.532-0.899 0.354-1.65 0.918-2.24 1.69-0.62 0.81-0.931 1.69-0.931 2.64 0 0.139 0.00634 0.279 0.019 0.418l0.076 0.38c0.304-0.076 0.608-0.114 0.912-0.114 0.139 0 0.266 0.0063 0.38 0.019 0.127 0.0127 0.253 0.0316 0.38 0.057 0.595 0.114 1.07 0.418 1.42 0.912 0.367 0.506 0.532 1.05 0.494 1.63 1.03-0.0126 1.96-0.317 2.79-0.912 0.912-0.671 1.37-1.49 1.37-2.47 0-0.734-0.26-1.36-0.779-1.88-0.481-0.519-1.1-0.779-1.86-0.779-0.57 0-1.1 0.184-1.58 0.551-0.494 0.418-0.741 0.905-0.741 1.46 0 0.506 0.222 0.874 0.665 1.1v0.019c0.0886 0.0126 0.133 0.076 0.133 0.19l-0.019 0.019h-0.019c-0.038 0-0.108-0.0316-0.209-0.095-0.494-0.329-0.741-0.766-0.741-1.31 0-0.633 0.272-1.16 0.817-1.6 0.481-0.405 1.06-0.608 1.73-0.608 0.81 0 1.49 0.272 2.05 0.817 0.582 0.557 0.874 1.22 0.874 1.99 0 1.11-0.487 2.03-1.46 2.73-0.874 0.658-1.89 0.981-3.04 0.968-0.0886 0.633-0.443 1.18-1.06 1.65-0.279 0.203-0.576 0.361-0.893 0.475-0.317 0.101-0.652 0.152-1.01 0.152-0.291 0-0.437-0.038-0.437-0.114 0-0.0506 0.133-0.076 0.399-0.076 0.076 0 0.165-0.0063 0.266-0.019 0.114-0.0126 0.234-0.0316 0.361-0.057 1.04-0.228 1.69-0.905 1.96-2.03-1.82-0.152-2.98-0.924-3.46-2.32-0.671 0.241-1.21 0.671-1.61 1.29-0.367 0.595-0.551 1.27-0.551 2.01 0 0.19 0.0127 0.38 0.038 0.57 0.0253 0.177 0.0633 0.361 0.114 0.551 0.19 0.709 0.646 1.27 1.37 1.69 0.671 0.367 1.39 0.551 2.16 0.551zm15.6 0.019c-0.544 0-0.817-0.468-0.817-1.41 0-1.13 0.285-2.28 0.855-3.46 0.228-0.456 0.582-1 1.06-1.63 0.19-0.241 0.392-0.481 0.608-0.722 0.215-0.253 0.449-0.519 0.703-0.798 0.139-0.165 0.329-0.367 0.57-0.608 0.241-0.253 0.525-0.551 0.855-0.893 0.861-0.861 1.34-1.29 1.42-1.29 0.0253 0 0.0063 0.038-0.057 0.114-0.0126 0.0253-0.0506 0.0696-0.114 0.133-0.0506 0.0633-0.127 0.146-0.228 0.247-0.544 0.582-1.08 1.27-1.6 2.05-0.342 0.506-0.677 1.06-1.01 1.67-0.329 0.595-0.658 1.24-0.988 1.94-0.392 0.874-0.696 1.63-0.912 2.28-0.203 0.633-0.304 1.16-0.304 1.58 0 0.354 0.108 0.532 0.323 0.532 0.114 0 0.348-0.108 0.703-0.323 0.329-0.215 0.544-0.386 0.646-0.513 0.038-0.0506 0.0886-0.076 0.152-0.076 0.0253 0.0253 0.038 0.0443 0.038 0.057s-0.0126 0.0316-0.038 0.057c-0.684 0.709-1.31 1.06-1.88 1.06zm-0.266-9.53c0.317 0 0.475-0.158 0.475-0.475 0-0.266-0.127-0.475-0.38-0.627-0.228-0.114-0.481-0.171-0.76-0.171-0.481 0-1.03 0.171-1.63 0.513 0.0886 0.038 0.171 0.076 0.247 0.114l0.228 0.076c0.279-0.291 0.5-0.437 0.665-0.437 0.0253 0 0.038 0.0063 0.038 0.019-0.0633 0.076-0.133 0.158-0.209 0.247l-0.266 0.266c0.43 0.152 0.779 0.272 1.04 0.361 0.266 0.076 0.449 0.114 0.551 0.114zm-13.4 4.96c0.0127-0.0506 0.019-0.133 0.019-0.247 0-0.43-0.12-0.848-0.361-1.25-0.266-0.392-0.614-0.639-1.04-0.741-0.139-0.0253-0.285-0.0443-0.437-0.057-0.152-0.0253-0.298-0.038-0.437-0.038-0.304 0-0.589 0.038-0.855 0.114 0.215 0.658 0.614 1.18 1.2 1.58 0.544 0.367 1.18 0.582 1.92 0.646z" fill="#dcd7ba" stroke="#dcd7ba" stroke-width=".921" aria-label="Movies Deluxe"/>
</svg>
